<svg height='100px' width='100px'  fill="#000000" xmlns="http://www.w3.org/2000/svg" xmlns:xlink="http://www.w3.org/1999/xlink" xml:space="preserve" version="1.1" style="shape-rendering:geometricPrecision;text-rendering:geometricPrecision;image-rendering:optimizeQuality;" viewBox="0 0 443 316" x="0px" y="0px" fill-rule="evenodd" clip-rule="evenodd"><defs><style type="text/css">
   
    .fil0 {fill:#000000;fill-rule:nonzero}
   
  </style></defs><g><path class="fil0" d="M44 0l356 0c24,0 43,20 43,44l0 229c0,24 -19,43 -43,43l-356 0c-24,0 -44,-19 -44,-43l0 -229c0,-24 20,-44 44,-44zm366 294l-134 -125 -24 17c-19,13 -42,13 -60,0l-24 -17 -135 125c3,1 7,2 11,2l356 0c3,0 7,-1 10,-2zm-389 -16l130 -120 -131 -92 0 207c0,1 0,3 1,5zm-1 -236l183 128c11,8 26,8 37,0l183 -128c-1,-13 -11,-22 -23,-22l-356 0c-12,0 -23,9 -24,22zm403 24l-131 92 131 120c0,-2 0,-4 0,-5l0 -207z"></path></g></svg>