<svg width="1024" height="1024" viewBox="0 0 1024 1024" fill="none" xmlns="http://www.w3.org/2000/svg">
<rect width="1024" height="1024" rx="229" fill="white"/>
<circle cx="516" cy="512" r="288" fill="#16A7FF" fill-opacity="0.32"/>
<path d="M491.84 282.399C533.078 282.399 566.507 248.969 566.507 207.732C566.507 166.495 533.078 133.066 491.84 133.066C450.603 133.066 417.174 166.495 417.174 207.732C417.174 248.969 450.603 282.399 491.84 282.399Z" stroke="black" stroke-width="25" stroke-linecap="round" stroke-linejoin="round"/>
<path d="M415.68 509.389C415.094 489.187 406.579 470.028 391.978 456.056C377.376 442.083 357.861 434.419 337.654 434.722L176 421.282C166.099 421.282 156.603 417.349 149.602 410.347C142.6 403.346 138.667 393.85 138.667 383.949C138.667 374.047 142.6 364.551 149.602 357.55C156.603 350.549 166.099 346.615 176 346.615H810.667C820.568 346.615 830.064 350.549 837.066 357.55C844.067 364.551 848 374.047 848 383.949C848 393.85 844.067 403.346 837.066 410.347C830.064 417.349 820.568 421.282 810.667 421.282L655.734 432.855C642.815 434.77 630.933 441.027 622.044 450.594C613.155 460.162 607.788 472.471 606.827 485.495C603.833 521.372 608.583 557.473 620.757 591.353C632.931 625.234 652.244 656.103 677.387 681.869L822.987 831.202C831.219 839.639 835.827 850.961 835.827 862.749C835.827 874.537 831.219 885.858 822.987 894.295C814.734 902.773 803.527 907.738 791.703 908.155C779.879 908.573 768.351 904.41 759.52 896.535L523.574 693.442H281.28V861.069C280.988 872.557 276.218 883.477 267.988 891.498C259.758 899.519 248.719 904.006 237.227 904.002C231.491 904.002 225.811 902.872 220.511 900.677C215.212 898.482 210.397 895.265 206.341 891.208C202.285 887.152 199.067 882.337 196.872 877.038C194.677 871.738 193.547 866.058 193.547 860.322V636.322C193.432 627.374 196.535 618.682 202.291 611.829C208.047 604.977 216.073 600.42 224.907 598.989C294.257 587.696 364.766 585.312 434.72 591.895" stroke="black" stroke-width="25" stroke-linecap="round" stroke-linejoin="round"/>
</svg>
