<svg width="3397" height="1546" viewBox="0 0 3397 1546" fill="none" xmlns="http://www.w3.org/2000/svg">
<rect x="5" y="5" width="3387" height="1536" rx="100" fill="white"/>
<rect x="105" y="261" width="1024" height="1024" rx="229" fill="white"/>
<circle cx="621" cy="773" r="288" fill="#16A7FF" fill-opacity="0.32"/>
<path d="M596.84 543.399C638.078 543.399 671.507 509.969 671.507 468.732C671.507 427.495 638.078 394.066 596.84 394.066C555.603 394.066 522.174 427.495 522.174 468.732C522.174 509.969 555.603 543.399 596.84 543.399Z" stroke="black" stroke-width="25" stroke-linecap="round" stroke-linejoin="round"/>
<path d="M520.68 770.389C520.094 750.187 511.579 731.028 496.978 717.056C482.376 703.083 462.861 695.419 442.654 695.722L281 682.282C271.099 682.282 261.603 678.349 254.602 671.347C247.6 664.346 243.667 654.85 243.667 644.949C243.667 635.047 247.6 625.551 254.602 618.55C261.603 611.549 271.099 607.615 281 607.615H915.667C925.568 607.615 935.064 611.549 942.066 618.55C949.067 625.551 953 635.047 953 644.949C953 654.85 949.067 664.346 942.066 671.347C935.064 678.349 925.568 682.282 915.667 682.282L760.734 693.855C747.815 695.77 735.933 702.027 727.044 711.594C718.155 721.162 712.788 733.471 711.827 746.495C708.833 782.372 713.583 818.473 725.757 852.353C737.931 886.234 757.243 917.103 782.387 942.869L927.987 1092.2C936.219 1100.64 940.827 1111.96 940.827 1123.75C940.827 1135.54 936.219 1146.86 927.987 1155.3C919.734 1163.77 908.527 1168.74 896.703 1169.16C884.879 1169.57 873.35 1165.41 864.52 1157.54L628.574 954.442H386.28V1122.07C385.988 1133.56 381.218 1144.48 372.988 1152.5C364.758 1160.52 353.719 1165.01 342.227 1165C336.491 1165 330.811 1163.87 325.511 1161.68C320.212 1159.48 315.397 1156.26 311.341 1152.21C307.284 1148.15 304.067 1143.34 301.872 1138.04C299.677 1132.74 298.547 1127.06 298.547 1121.32V897.322C298.432 888.374 301.535 879.682 307.291 872.829C313.047 865.977 321.073 861.42 329.907 859.989C399.257 848.696 469.766 846.312 539.72 852.895" stroke="black" stroke-width="25" stroke-linecap="round" stroke-linejoin="round"/>
<path d="M1318.3 787.375C1367.09 787.375 1397.61 762.906 1397.61 724.094C1397.61 694 1379.61 676.844 1336.86 667.984L1315.06 663.484C1289.75 658.141 1279.62 649.281 1279.62 635.5C1279.62 618.484 1295.66 607.797 1318.16 607.797C1337.14 607.797 1351.62 615.109 1358.52 632.266C1362.31 640.141 1367.52 643.797 1375.95 643.797C1385.38 643.797 1391.7 637.75 1391.7 628.891C1391.7 625.516 1391.28 622.844 1390.44 620.594C1382.14 593.734 1354.3 577.703 1318.44 577.703C1274.42 577.703 1243.06 601.891 1243.06 637.609C1243.06 667.281 1262.05 686.406 1302.69 694.703L1324.48 699.203C1350.92 704.688 1361.05 713.688 1361.05 728.312C1361.05 745.188 1343.89 757.281 1319.42 757.281C1297.77 757.281 1280.33 749.406 1274 731.828C1270.06 723.672 1265 720.438 1256.98 720.438C1247.42 720.438 1240.95 726.906 1240.95 737.031C1240.95 740.406 1241.66 744.062 1242.92 747.438C1250.8 770.5 1277.8 787.375 1318.3 787.375ZM1431.08 747.156C1431.08 772.609 1444.3 785.547 1470.31 785.547H1471.72C1487.75 785.547 1496.75 780.062 1496.75 769.797C1496.75 761.641 1491.97 757.703 1482.69 756.859L1480.16 756.578C1470.03 755.734 1466.09 750.812 1466.09 739.562V661.938H1482.27C1490.98 661.938 1496.33 656.734 1496.33 648.297C1496.33 640 1490.98 634.938 1482.27 634.938H1466.09V615.109C1466.09 603.859 1459.34 596.828 1448.66 596.828C1437.83 596.828 1431.08 603.859 1431.08 615.109V634.938H1421.66C1412.94 634.938 1407.59 640 1407.59 648.297C1407.59 656.734 1412.94 661.938 1421.66 661.938H1431.08V747.156ZM1535.56 786.812C1546.11 786.812 1553.14 779.922 1553.14 768.391V696.672C1553.14 678.531 1560.73 666.016 1580.7 665.875C1587.59 665.734 1592.8 664.188 1596.17 661.234C1599.69 658.422 1601.38 654.344 1601.38 648.859C1601.38 643.094 1599.69 638.875 1596.45 636.203C1593.78 633.812 1589.56 632.406 1584.08 632.406C1569.17 632.406 1556.23 643.656 1552.16 661.094H1551.45V649.703C1551.45 638.734 1544.56 631.984 1534.86 631.984C1524.88 631.984 1518.12 638.734 1518.12 649.703V768.391C1518.12 779.922 1525.02 786.812 1535.56 786.812ZM1677.73 786.953C1706.14 786.953 1728.36 775.844 1738.2 756.859C1739.75 753.766 1740.59 750.672 1740.59 748C1740.59 739.562 1734.41 734.5 1726.53 734.5C1721.61 734.5 1718.38 736.047 1714.72 740.125C1703.47 754.469 1693.2 759.953 1677.45 759.953C1654.67 759.953 1640.19 743.922 1640.19 719.031V717.906H1728.08C1738.48 717.906 1744.39 711.719 1744.39 701.312C1744.39 660.812 1716.55 631.844 1675.77 631.844C1632.73 631.844 1605.31 662.5 1605.31 710.031C1605.31 758.406 1632.17 786.953 1677.73 786.953ZM1640.47 694.844C1641.88 673.469 1656.22 658.984 1675.91 658.984C1695.59 658.984 1709.38 673.188 1710.08 694.844H1640.47ZM1776.73 747.156C1776.73 772.609 1789.95 785.547 1815.97 785.547H1817.38C1833.41 785.547 1842.41 780.062 1842.41 769.797C1842.41 761.641 1837.62 757.703 1828.34 756.859L1825.81 756.578C1815.69 755.734 1811.75 750.812 1811.75 739.562V661.938H1827.92C1836.64 661.938 1841.98 656.734 1841.98 648.297C1841.98 640 1836.64 634.938 1827.92 634.938H1811.75V615.109C1811.75 603.859 1805 596.828 1794.31 596.828C1783.48 596.828 1776.73 603.859 1776.73 615.109V634.938H1767.31C1758.59 634.938 1753.25 640 1753.25 648.297C1753.25 656.734 1758.59 661.938 1767.31 661.938H1776.73V747.156ZM1926.5 786.953C1954.62 786.953 1979.38 772.469 1987.67 752.078C1989.08 748.703 1989.78 745.75 1989.78 743.078C1989.78 734.359 1983.31 728.734 1975.02 728.734C1967.42 728.734 1963.62 731.688 1958.84 739.562C1952.09 751.516 1942.53 758.688 1927.06 758.688C1904.84 758.688 1890.36 740.406 1890.36 709.469C1890.36 678.953 1904.7 660.25 1927.2 660.25C1941.69 660.25 1951.53 666.719 1958.98 680.359C1963.06 687.391 1967.28 690.344 1974.31 690.344C1982.75 690.344 1989.36 685 1989.36 676.281C1989.36 673.75 1988.66 670.797 1987.53 667.844C1980.36 646.891 1955.47 631.844 1926.22 631.844C1882.77 631.844 1854.78 662.078 1854.78 709.609C1854.78 757.422 1882.91 786.953 1926.5 786.953ZM2031.97 786.812C2042.23 786.812 2049.41 780.203 2049.41 768.391V698.359C2049.41 676.422 2062.2 661.797 2083.3 661.797C2103.55 661.797 2113.95 674.312 2113.95 695.125V768.391C2113.95 780.203 2121.12 786.812 2131.39 786.812C2141.66 786.812 2148.97 780.203 2148.97 768.391V687.953C2148.97 653.781 2129.7 632.125 2096.8 632.125C2074.16 632.125 2057.7 642.391 2049.69 660.531H2048.98V596.266C2048.98 585.156 2042.52 578.266 2031.69 578.266C2021 578.266 2014.39 585.156 2014.39 596.266V768.391C2014.39 780.203 2021.7 786.812 2031.97 786.812Z" fill="#0C0C0C"/>
<path d="M1247 1001H1280.47C1302.12 1001 1315.27 990.031 1315.27 972.172C1315.27 958.742 1305.64 948.828 1291.86 947.492V946.93C1302.27 945.242 1310.35 935.75 1310.35 924.852C1310.35 909.453 1298.47 899.539 1280.05 899.539H1247C1241.38 899.539 1237.93 903.055 1237.93 908.961V991.578C1237.93 997.484 1241.38 1001 1247 1001ZM1256.07 942.289V913.672H1275.48C1286.3 913.672 1292.42 918.664 1292.42 927.523C1292.42 936.945 1285.32 942.289 1272.66 942.289H1256.07ZM1256.07 986.867V955.156H1275.55C1289.47 955.156 1296.78 960.57 1296.78 970.906C1296.78 981.312 1289.68 986.867 1276.32 986.867H1256.07ZM1352.54 1002.34C1363.86 1002.34 1371.38 997.133 1375.32 988.062H1375.67V993.547C1375.67 999.172 1379.12 1002.41 1384.18 1002.41C1389.17 1002.41 1392.55 999.172 1392.55 993.547V934.273C1392.55 928.367 1388.89 924.992 1383.83 924.992C1378.7 924.992 1375.04 928.367 1375.04 934.203V969.57C1375.04 980.398 1368.78 987.57 1358.66 987.57C1348.81 987.57 1343.61 981.805 1343.61 971.117V934.273C1343.61 928.367 1339.95 924.992 1334.82 924.992C1329.69 924.992 1326.1 928.367 1326.1 934.203V974.633C1326.1 991.859 1336.37 1002.34 1352.54 1002.34ZM1416.03 915.992C1421.52 915.992 1425.8 911.773 1425.8 906.5C1425.8 901.156 1421.52 897.008 1416.03 897.008C1410.62 897.008 1406.33 901.156 1406.33 906.5C1406.33 911.773 1410.62 915.992 1416.03 915.992ZM1416.03 1002.41C1421.38 1002.41 1424.82 998.891 1424.82 993.195V934.273C1424.82 928.578 1421.38 924.992 1416.03 924.992C1410.69 924.992 1407.31 928.578 1407.31 934.203V993.195C1407.31 998.891 1410.69 1002.41 1416.03 1002.41ZM1448.8 1002.41C1453.93 1002.41 1457.52 999.102 1457.52 993.195V907.344C1457.52 901.438 1453.93 898.133 1448.8 898.133C1443.66 898.133 1440.01 901.438 1440.01 907.344V993.195C1440.01 999.102 1443.66 1002.41 1448.8 1002.41ZM1500.27 1002.2C1511.8 1002.2 1519.81 996.359 1523.4 987.781H1523.75V993.617C1523.75 999.312 1527.55 1002.41 1532.61 1002.41C1537.67 1002.41 1541.26 999.242 1541.26 993.617V907.344C1541.26 901.438 1537.6 898.133 1532.47 898.133C1527.34 898.133 1523.75 901.438 1523.75 907.344V938.984H1523.33C1519.39 930.758 1510.95 925.203 1500.27 925.203C1481.49 925.203 1469.33 940.109 1469.33 963.664C1469.33 987.359 1481.49 1002.2 1500.27 1002.2ZM1505.54 987.852C1494.22 987.852 1487.26 978.57 1487.26 963.734C1487.26 948.969 1494.29 939.617 1505.54 939.617C1516.58 939.617 1523.82 949.109 1523.82 963.734C1523.82 978.5 1516.58 987.852 1505.54 987.852ZM1606.65 1002.2C1616.28 1002.2 1625.63 997.203 1629.92 989.117H1630.27V994.32C1630.55 999.523 1633.86 1002.41 1638.64 1002.41C1643.56 1002.41 1647.15 999.242 1647.15 993.617V949.672C1647.15 934.695 1635.12 924.922 1616.63 924.922C1602.36 924.922 1590.83 930.406 1587.03 939.055C1586.26 940.672 1585.84 942.219 1585.84 943.836C1585.84 948.055 1588.93 950.867 1593.22 950.867C1596.17 950.867 1598.49 949.742 1600.32 947.352C1604.68 940.953 1609.11 938.633 1615.93 938.633C1624.58 938.633 1629.85 943.133 1629.85 950.938V956.281L1610.09 957.406C1591.95 958.531 1581.76 966.477 1581.76 979.695C1581.76 993.125 1592.23 1002.2 1606.65 1002.2ZM1611.99 988.977C1604.4 988.977 1599.27 985.109 1599.27 978.992C1599.27 973.086 1604.12 969.289 1612.55 968.727L1629.85 967.672V973.367C1629.85 982.367 1621.84 988.977 1611.99 988.977ZM1699.11 1002.41C1704.17 1002.41 1707.76 999.242 1707.76 993.617V988.273H1708.11C1712.54 996.922 1720.91 1002.2 1731.8 1002.2C1750.72 1002.2 1762.6 987.57 1762.6 963.734C1762.6 939.898 1750.65 925.203 1731.88 925.203C1721.26 925.203 1712.82 930.547 1708.53 939.266H1708.11V907.344C1708.11 901.438 1704.52 898.133 1699.39 898.133C1694.26 898.133 1690.6 901.438 1690.6 907.344V993.617C1690.6 999.312 1694.05 1002.41 1699.11 1002.41ZM1726.46 987.852C1715.63 987.852 1708.04 978.359 1708.04 963.734C1708.04 949.25 1715.63 939.617 1726.46 939.617C1737.64 939.617 1744.67 948.969 1744.67 963.734C1744.67 978.57 1737.64 987.852 1726.46 987.852ZM1807.04 1002.48C1821.24 1002.48 1832.35 996.922 1837.27 987.43C1838.05 985.883 1838.47 984.336 1838.47 983C1838.47 978.781 1835.38 976.25 1831.44 976.25C1828.98 976.25 1827.36 977.023 1825.53 979.062C1819.91 986.234 1814.77 988.977 1806.9 988.977C1795.51 988.977 1788.27 980.961 1788.27 968.516V967.953H1832.21C1837.41 967.953 1840.37 964.859 1840.37 959.656C1840.37 939.406 1826.45 924.922 1806.05 924.922C1784.54 924.922 1770.83 940.25 1770.83 964.016C1770.83 988.203 1784.26 1002.48 1807.04 1002.48ZM1788.41 956.422C1789.11 945.734 1796.28 938.492 1806.12 938.492C1815.97 938.492 1822.86 945.594 1823.21 956.422H1788.41ZM1856.54 982.578C1856.54 995.305 1863.15 1001.77 1876.16 1001.77H1876.86C1884.88 1001.77 1889.38 999.031 1889.38 993.898C1889.38 989.82 1886.98 987.852 1882.34 987.43L1881.08 987.289C1876.02 986.867 1874.05 984.406 1874.05 978.781V939.969H1882.13C1886.49 939.969 1889.16 937.367 1889.16 933.148C1889.16 929 1886.49 926.469 1882.13 926.469H1874.05V916.555C1874.05 910.93 1870.67 907.414 1865.33 907.414C1859.91 907.414 1856.54 910.93 1856.54 916.555V926.469H1851.83C1847.47 926.469 1844.8 929 1844.8 933.148C1844.8 937.367 1847.47 939.969 1851.83 939.969H1856.54V982.578ZM1904.91 982.578C1904.91 995.305 1911.52 1001.77 1924.53 1001.77H1925.23C1933.25 1001.77 1937.75 999.031 1937.75 993.898C1937.75 989.82 1935.36 987.852 1930.72 987.43L1929.45 987.289C1924.39 986.867 1922.42 984.406 1922.42 978.781V939.969H1930.51C1934.87 939.969 1937.54 937.367 1937.54 933.148C1937.54 929 1934.87 926.469 1930.51 926.469H1922.42V916.555C1922.42 910.93 1919.05 907.414 1913.7 907.414C1908.29 907.414 1904.91 910.93 1904.91 916.555V926.469H1900.2C1895.84 926.469 1893.17 929 1893.17 933.148C1893.17 937.367 1895.84 939.969 1900.2 939.969H1904.91V982.578ZM1980.15 1002.48C1994.35 1002.48 2005.46 996.922 2010.38 987.43C2011.16 985.883 2011.58 984.336 2011.58 983C2011.58 978.781 2008.48 976.25 2004.55 976.25C2002.09 976.25 2000.47 977.023 1998.64 979.062C1993.02 986.234 1987.88 988.977 1980.01 988.977C1968.62 988.977 1961.38 980.961 1961.38 968.516V967.953H2005.32C2010.52 967.953 2013.48 964.859 2013.48 959.656C2013.48 939.406 1999.55 924.922 1979.16 924.922C1957.65 924.922 1943.94 940.25 1943.94 964.016C1943.94 988.203 1957.37 1002.48 1980.15 1002.48ZM1961.52 956.422C1962.22 945.734 1969.39 938.492 1979.23 938.492C1989.08 938.492 1995.97 945.594 1996.32 956.422H1961.52ZM2033.52 1002.41C2038.79 1002.41 2042.3 998.961 2042.3 993.195V957.336C2042.3 948.266 2046.1 942.008 2056.09 941.938C2059.53 941.867 2062.13 941.094 2063.82 939.617C2065.58 938.211 2066.42 936.172 2066.42 933.43C2066.42 930.547 2065.58 928.438 2063.96 927.102C2062.62 925.906 2060.52 925.203 2057.77 925.203C2050.32 925.203 2043.85 930.828 2041.81 939.547H2041.46V933.852C2041.46 928.367 2038.02 924.992 2033.16 924.992C2028.17 924.992 2024.8 928.367 2024.8 933.852V993.195C2024.8 998.961 2028.24 1002.41 2033.52 1002.41ZM2111.84 1027.51C2116.98 1027.51 2120.63 1024.2 2120.63 1018.3V988.625H2120.98C2125.06 996.992 2133.5 1002.2 2144.33 1002.2C2163.03 1002.2 2174.98 987.5 2174.98 963.734C2174.98 939.898 2162.96 925.203 2144.05 925.203C2133.22 925.203 2124.78 930.688 2120.56 939.336H2120.21V933.992C2120.21 928.227 2116.62 924.992 2111.63 924.992C2106.64 924.992 2103.12 928.227 2103.12 933.992V1018.3C2103.12 1024.2 2106.71 1027.51 2111.84 1027.51ZM2138.7 987.852C2127.8 987.852 2120.56 978.359 2120.49 963.734C2120.56 949.25 2127.8 939.617 2138.7 939.617C2150.02 939.617 2157.05 949.039 2157.05 963.734C2157.05 978.5 2150.02 987.852 2138.7 987.852ZM2219.21 1002.48C2241.08 1002.48 2255.28 987.922 2255.28 963.734C2255.28 939.617 2240.94 924.922 2219.21 924.922C2197.48 924.922 2183.14 939.688 2183.14 963.734C2183.14 987.922 2197.34 1002.48 2219.21 1002.48ZM2219.21 988.625C2208.1 988.625 2200.93 979.625 2200.93 963.734C2200.93 947.914 2208.17 938.844 2219.21 938.844C2230.32 938.844 2237.49 947.914 2237.49 963.734C2237.49 979.625 2230.32 988.625 2219.21 988.625ZM2295.29 1002.48C2314.27 1002.48 2327.07 993.125 2327.07 978.852C2327.07 967.812 2320.81 962.117 2305.06 958.531L2293.18 955.93C2285.45 954.172 2282.21 951.219 2282.21 946.859C2282.21 941.516 2287.48 937.789 2295.15 937.789C2302.53 937.789 2306.82 941.023 2310.27 946.156C2311.88 948.477 2314.41 949.391 2316.95 949.391C2321.38 949.391 2323.7 946.789 2323.7 943.133C2323.7 942.289 2323.55 941.445 2323.34 940.531C2321.02 931.953 2309.91 924.922 2295.57 924.922C2277.15 924.922 2265.2 933.992 2265.2 947.844C2265.2 958.672 2272.37 965.844 2286.92 969.148L2299.02 971.891C2306.68 973.648 2309.49 976.109 2309.49 980.609C2309.49 986.234 2304.08 989.68 2295.92 989.68C2287.55 989.68 2283.05 987.148 2279.12 981.453C2276.87 978.5 2274.41 977.164 2271.52 977.164C2267.3 977.164 2264.21 979.836 2264.21 984.055C2264.21 985.109 2264.42 986.234 2264.91 987.5C2268.5 996.43 2279.54 1002.48 2295.29 1002.48ZM2342.96 982.578C2342.96 995.305 2349.57 1001.77 2362.58 1001.77H2363.28C2371.3 1001.77 2375.8 999.031 2375.8 993.898C2375.8 989.82 2373.41 987.852 2368.77 987.43L2367.5 987.289C2362.44 986.867 2360.47 984.406 2360.47 978.781V939.969H2368.55C2372.91 939.969 2375.59 937.367 2375.59 933.148C2375.59 929 2372.91 926.469 2368.55 926.469H2360.47V916.555C2360.47 910.93 2357.09 907.414 2351.75 907.414C2346.34 907.414 2342.96 910.93 2342.96 916.555V926.469H2338.25C2333.89 926.469 2331.22 929 2331.22 933.148C2331.22 937.367 2333.89 939.969 2338.25 939.969H2342.96V982.578ZM2412.57 1002.34C2423.89 1002.34 2431.41 997.133 2435.35 988.062H2435.7V993.547C2435.7 999.172 2439.15 1002.41 2444.21 1002.41C2449.2 1002.41 2452.58 999.172 2452.58 993.547V934.273C2452.58 928.367 2448.92 924.992 2443.86 924.992C2438.73 924.992 2435.07 928.367 2435.07 934.203V969.57C2435.07 980.398 2428.81 987.57 2418.69 987.57C2408.84 987.57 2403.64 981.805 2403.64 971.117V934.273C2403.64 928.367 2399.98 924.992 2394.85 924.992C2389.72 924.992 2386.13 928.367 2386.13 934.203V974.633C2386.13 991.859 2396.4 1002.34 2412.57 1002.34ZM2475.64 1002.41C2480.91 1002.41 2484.43 998.961 2484.43 993.195V957.336C2484.43 948.266 2488.23 942.008 2498.21 941.938C2501.66 941.867 2504.26 941.094 2505.95 939.617C2507.7 938.211 2508.55 936.172 2508.55 933.43C2508.55 930.547 2507.7 928.438 2506.09 927.102C2504.75 925.906 2502.64 925.203 2499.9 925.203C2492.45 925.203 2485.98 930.828 2483.94 939.547H2483.59V933.852C2483.59 928.367 2480.14 924.992 2475.29 924.992C2470.3 924.992 2466.92 928.367 2466.92 933.852V993.195C2466.92 998.961 2470.37 1002.41 2475.64 1002.41ZM2546.73 1002.48C2560.93 1002.48 2572.04 996.922 2576.96 987.43C2577.73 985.883 2578.16 984.336 2578.16 983C2578.16 978.781 2575.06 976.25 2571.12 976.25C2568.66 976.25 2567.05 977.023 2565.22 979.062C2559.59 986.234 2554.46 988.977 2546.59 988.977C2535.2 988.977 2527.95 980.961 2527.95 968.516V967.953H2571.9C2577.1 967.953 2580.05 964.859 2580.05 959.656C2580.05 939.406 2566.13 924.922 2545.74 924.922C2524.23 924.922 2510.52 940.25 2510.52 964.016C2510.52 988.203 2523.95 1002.48 2546.73 1002.48ZM2528.09 956.422C2528.8 945.734 2535.97 938.492 2545.81 938.492C2555.66 938.492 2562.55 945.594 2562.9 956.422H2528.09ZM2603.61 1001.77C2609.23 1001.77 2613.66 997.344 2613.66 991.648C2613.66 986.023 2609.23 981.523 2603.61 981.523C2597.91 981.523 2593.48 986.023 2593.48 991.648C2593.48 997.344 2597.91 1001.77 2603.61 1001.77Z" fill="#828282"/>
<rect x="2.5" y="2.5" width="3392" height="1541" rx="102.5" stroke="#828282" stroke-opacity="0.3" stroke-width="5"/>
</svg>
